ffmpeg version 3.4.8-0ubuntu0.2 Copyright (c) 2000-2020 the FFmpeg developers
  built with gcc 7 (Ubuntu 7.5.0-3ubuntu1~18.04)
  configuration: --prefix=/usr --extra-version=0ubuntu0.2 --toolchain=hardened --libdir=/usr/lib/x86_64-linux-gnu --incdir=/usr/include/x86_64-linux-gnu --enable-gpl --disable-stripping --enable-avresample --enable-avisynth --enable-gnutls --enable-ladspa --enable-libass --enable-libbluray --enable-libbs2b --enable-libcaca --enable-libcdio --enable-libflite --enable-libfontconfig --enable-libfreetype --enable-libfribidi --enable-libgme --enable-libgsm --enable-libmp3lame --enable-libmysofa --enable-libopenjpeg --enable-libopenmpt --enable-libopus --enable-libpulse --enable-librubberband --enable-librsvg --enable-libshine --enable-libsnappy --enable-libsoxr --enable-libspeex --enable-libssh --enable-libtheora --enable-libtwolame --enable-libvorbis --enable-libvpx --enable-libwavpack --enable-libwebp --enable-libx265 --enable-libxml2 --enable-libxvid --enable-libzmq --enable-libzvbi --enable-omx --enable-openal --enable-opengl --enable-sdl2 --enable-libdc1394 --enable-libdrm --enable-libiec61883 --enable-chromaprint --enable-frei0r --enable-libopencv --enable-libx264 --enable-shared
  libavutil      55. 78.100 / 55. 78.100
  libavcodec     57.107.100 / 57.107.100
  libavformat    57. 83.100 / 57. 83.100
  libavdevice    57. 10.100 / 57. 10.100
  libavfilter     6.107.100 /  6.107.100
  libavresample   3.  7.  0 /  3.  7.  0
  libswscale      4.  8.100 /  4.  8.100
  libswresample   2.  9.100 /  2.  9.100
  libpostproc    54.  7.100 / 54.  7.100
Input #0, mov,mp4,m4a,3gp,3g2,mj2, from '../.././Samples/Boaz_explains_reality.3gp':
  Metadata:
    major_brand     : 3gp4
    minor_version   : 256
    compatible_brands: 3gp53gp4isom
    creation_time   : 2004-08-24T17:08:58.000000Z
  Duration: 00:00:09.89, start: 0.000000, bitrate: 78 kb/s
    Stream #0:0(und): Video: h263 (s263 / 0x33363273), yuv420p, 128x96 [SAR 12:11 DAR 16:11], 62 kb/s, 12.03 fps, 29.97 tbr, 12k tbn, 29.97 tbc (default)
    Metadata:
      creation_time   : 2004-08-24T17:08:58.000000Z
      handler_name    : VideoHandler
    Stream #0:1(und): Audio: amr_nb (samr / 0x726D6173), 8000 Hz, mono, flt, 12 kb/s (default)
    Metadata:
      creation_time   : 2004-08-24T17:08:58.000000Z
      handler_name    : SoundHandler
Stream mapping:
  Stream #0:0 -> #0:0 (h263 (native) -> h264 (libx264))
  Stream #0:1 -> #0:1 (amr_nb (amrnb) -> aac (native))
Press [q] to stop, [?] for help
[libx264 @ 0x56436beea800] using SAR=12/11
[libx264 @ 0x56436beea800] using cpu capabilities: MMX2 SSE2Fast SSSE3 SSE4.2 AVX FMA3 BMI2 AVX2
[libx264 @ 0x56436beea800] profile High, level 1.0
[libx264 @ 0x56436beea800] 264 - core 152 r2854 e9a5903 - H.264/MPEG-4 AVC codec - Copyleft 2003-2017 - http://www.videolan.org/x264.html - options: cabac=1 ref=3 deblock=1:0:0 analyse=0x3:0x113 me=hex subme=7 psy=1 psy_rd=1.00:0.00 mixed_ref=1 me_range=16 chroma_me=1 trellis=1 8x8dct=1 cqm=0 deadzone=21,11 fast_pskip=1 chroma_qp_offset=-2 threads=3 lookahead_threads=1 sliced_threads=0 nr=0 decimate=1 interlaced=0 bluray_compat=0 constrained_intra=0 bframes=3 b_pyramid=2 b_adapt=1 b_bias=0 direct=1 weightb=1 open_gop=0 weightp=2 keyint=250 keyint_min=25 scenecut=40 intra_refresh=0 rc_lookahead=40 rc=crf mbtree=1 crf=23.0 qcomp=0.60 qpmin=0 qpmax=69 qpstep=4 ip_ratio=1.40 aq=1:1.00
[aac @ 0x56436beeb700] Too many bits 8832.000000 > 6144 per frame requested, clamping to max
Output #0, mov, to '/home/aleksandr/Pract/Samples/Boaz_explains_reality.3gp_tc/output_tc2.mov':
  Metadata:
    major_brand     : 3gp4
    minor_version   : 256
    compatible_brands: 3gp53gp4isom
    encoder         : Lavf57.83.100
    Stream #0:0(und): Video: h264 (libx264) (avc1 / 0x31637661), yuv420p(progressive), 128x96 [SAR 12:11 DAR 16:11], q=-1--1, 29.97 fps, 30k tbn, 29.97 tbc (default)
    Metadata:
      creation_time   : 2004-08-24T17:08:58.000000Z
      handler_name    : VideoHandler
      encoder         : Lavc57.107.100 libx264
    Side data:
      cpb: bitrate max/min/avg: 0/0/0 buffer size: 0 vbv_delay: -1
    Stream #0:1(und): Audio: aac (LC) (mp4a / 0x6134706D), 8000 Hz, mono, fltp, 48 kb/s (default)
    Metadata:
      creation_time   : 2004-08-24T17:08:58.000000Z
      handler_name    : SoundHandler
      encoder         : Lavc57.107.100 aac
Past duration 0.732262 too large
Past duration 0.622368 too large
frame=  297 fps=0.0 q=-1.0 Lsize=     130kB time=00:00:09.80 bitrate= 108.6kbits/s dup=178 drop=0 speed=53.6x    
video:83kB audio:41kB subtitle:0kB other streams:0kB global headers:0kB muxing overhead: 4.886774%
[libx264 @ 0x56436beea800] frame I:2     Avg QP:22.84  size:  2309
[libx264 @ 0x56436beea800] frame P:107   Avg QP:24.91  size:   692
[libx264 @ 0x56436beea800] frame B:188   Avg QP:30.35  size:    30
[libx264 @ 0x56436beea800] consecutive B-frames:  2.7% 34.3% 13.1% 49.8%
[libx264 @ 0x56436beea800] mb I  I16..4:  0.0% 82.3% 17.7%
[libx264 @ 0x56436beea800] mb P  I16..4:  0.1%  1.7%  0.2%  P16..4: 44.0% 27.7% 17.3%  0.0%  0.0%    skip: 9.0%
[libx264 @ 0x56436beea800] mb B  I16..4:  0.0%  0.1%  0.0%  B16..8: 11.8%  0.8%  0.2%  direct: 0.3%  skip:86.9%  L0:30.4% L1:59.9% BI: 9.8%
[libx264 @ 0x56436beea800] 8x8 transform intra:82.6% inter:73.9%
[libx264 @ 0x56436beea800] coded y,uvDC,uvAC intra: 94.8% 95.2% 58.9% inter: 20.6% 14.7% 1.9%
[libx264 @ 0x56436beea800] i16 v,h,dc,p:  0% 43% 14% 43%
[libx264 @ 0x56436beea800] i8 v,h,dc,ddl,ddr,vr,hd,vl,hu: 20% 22% 20%  4%  6%  6%  9%  6%  8%
[libx264 @ 0x56436beea800] i4 v,h,dc,ddl,ddr,vr,hd,vl,hu: 21% 24% 10%  4%  8%  8% 13%  7%  5%
[libx264 @ 0x56436beea800] i8c dc,h,v,p: 52% 20% 18% 10%
[libx264 @ 0x56436beea800] Weighted P-Frames: Y:4.7% UV:0.0%
[libx264 @ 0x56436beea800] ref P L0: 65.1% 24.0%  7.2%  3.7%  0.0%
[libx264 @ 0x56436beea800] ref B L0: 88.9%  7.0%  4.1%
[libx264 @ 0x56436beea800] ref B L1: 97.7%  2.3%
[libx264 @ 0x56436beea800] kb/s:67.97
[aac @ 0x56436beeb700] Qavg: 62107.781
	Command being timed: "/usr/bin/ffmpeg -i ../.././Samples/Boaz_explains_reality.3gp -c:v libx264 -f mov /home/aleksandr/Pract/Samples/Boaz_explains_reality.3gp_tc/output_tc2.mov"
	User time (seconds): 0.39
	System time (seconds): 0.01
	Percent of CPU this job got: 173%
	Elapsed (wall clock) time (h:mm:ss or m:ss): 0:00.23
	Average shared text size (kbytes): 0
	Average unshared data size (kbytes): 0
	Average stack size (kbytes): 0
	Average total size (kbytes): 0
	Maximum resident set size (kbytes): 55616
	Average resident set size (kbytes): 0
	Major (requiring I/O) page faults: 0
	Minor (reclaiming a frame) page faults: 6021
	Voluntary context switches: 1506
	Involuntary context switches: 17
	Swaps: 0
	File system inputs: 0
	File system outputs: 280
	Socket messages sent: 0
	Socket messages received: 0
	Signals delivered: 0
	Page size (bytes): 4096
	Exit status: 0
